<?xml version="1.0" standalone="no"?>
<!DOCTYPE svg PUBLIC "-//W3C//DTD SVG 20010904//EN"
 "http://www.w3.org/TR/2001/REC-SVG-20010904/DTD/svg10.dtd">
<svg version="1.0" xmlns="http://www.w3.org/2000/svg"
 width="100.000000pt" height="100.000000pt" viewBox="0 0 100.000000 100.000000"
 preserveAspectRatio="xMidYMid meet">
<metadata>
Created by potrace 1.16, written by Peter Selinger 2001-2019
</metadata>
<g transform="translate(0.000000,100.000000) scale(0.013966,-0.013966)"
fill="#000000" stroke="none">
<path d="M450 5317 c0 -23 50 -229 76 -316 58 -194 178 -339 349 -426 40 -20
229 -79 499 -155 240 -68 434 -126 431 -128 -4 -4 -91 2 -648 44 -181 14 -335
24 -343 22 -11 -2 6 -36 63 -128 101 -162 197 -259 310 -318 148 -77 170 -80
689 -88 253 -4 446 -11 429 -15 -16 -4 -106 -15 -200 -24 -93 -9 -251 -24
-350 -35 -99 -10 -238 -24 -310 -31 -71 -6 -138 -15 -148 -18 -16 -6 -8 -18
50 -72 176 -166 320 -255 463 -285 107 -23 246 -14 375 24 107 32 530 160 555
168 50 17 -22 -19 -162 -81 -575 -253 -608 -268 -596 -282 20 -24 124 -81 200
-109 60 -22 95 -28 193 -32 136 -5 206 8 314 59 55 25 249 143 372 225 19 13
38 24 41 24 3 0 -56 -62 -132 -137 -144 -144 -173 -186 -205 -297 -24 -81 -17
-229 14 -309 25 -65 99 -168 147 -203 l30 -23 208 375 c115 206 210 373 212
371 2 -2 -57 -206 -131 -453 l-135 -449 23 -21 c12 -12 118 -99 236 -193 138
-111 218 -168 225 -163 6 5 113 90 238 190 l226 181 -13 48 c-18 69 -256 855
-262 868 -2 5 3 1 11 -9 9 -11 106 -183 217 -383 l201 -363 35 27 c40 31 111
129 136 188 55 133 48 299 -20 429 -17 33 -77 101 -172 195 -80 79 -139 141
-131 136 8 -5 101 -63 205 -129 257 -162 322 -186 503 -186 115 0 214 24 312
76 86 45 118 70 105 82 -10 9 -646 293 -733 328 -97 38 -21 20 214 -51 137
-42 287 -88 334 -103 74 -23 101 -27 215 -27 142 1 203 13 306 65 71 36 190
126 293 221 l79 73 -29 7 c-16 4 -83 12 -149 18 -66 7 -201 20 -300 31 -99 10
-256 26 -350 35 -93 9 -183 20 -200 24 -16 4 175 11 425 15 491 8 525 11 644
65 141 64 226 139 318 283 119 184 118 183 104 186 -12 3 -286 -17 -839 -59
-81 -6 -150 -9 -153 -7 -2 3 96 33 218 67 123 34 252 71 288 82 36 11 128 37
205 59 181 51 287 104 371 183 111 103 166 200 213 373 30 113 63 265 58 270
-1 1 -272 -96 -602 -217 -330 -121 -739 -271 -910 -334 -170 -62 -546 -200
-835 -305 -289 -106 -551 -206 -582 -222 -83 -44 -133 -91 -165 -156 l-28 -57
-5 -420 -5 -420 -18 87 c-53 264 -208 467 -443 580 -124 60 -205 77 -387 85
l-158 6 6 26 c16 65 66 111 135 125 20 4 28 15 37 49 15 55 51 99 100 123 33
16 63 19 220 19 100 0 179 3 175 6 -4 4 -27 13 -52 22 -25 8 -225 81 -445 162
-220 81 -533 196 -695 255 -162 60 -425 156 -585 215 -159 58 -418 153 -575
210 -157 57 -322 118 -367 134 -56 21 -83 27 -83 18z"/>
</g>
</svg>
